<svg xmlns="http://www.w3.org/2000/svg" xmlns:xlink="http://www.w3.org/1999/xlink" preserveAspectRatio="xMidYMid" width="864" height="648" viewBox="0 0 864 648">
  <defs>
    <style>
      .cls-1 {
        fill: #fff;
        fill-rule: evenodd;
      }
    </style>
  </defs>
  <path d="M610.566,475.301 C602.875,482.973 593.730,486.743 583.125,486.743 C572.520,486.743 563.317,483.018 555.680,475.301 C548.144,467.674 544.454,458.672 544.454,448.073 C544.454,437.474 548.198,428.295 555.888,420.623 C563.583,412.951 572.525,409.182 583.125,409.182 C593.725,409.182 602.875,413.129 610.566,420.845 C618.257,428.517 622.000,437.474 622.000,448.073 C622.000,458.672 618.257,467.585 610.566,475.301 ZM541.545,383.417 C529.902,383.417 519.923,379.248 511.607,370.956 C503.295,362.619 499.135,352.641 499.135,341.022 C499.135,329.182 503.291,319.204 511.607,310.867 C519.715,302.752 529.694,298.628 541.545,298.628 C553.187,298.628 563.167,302.752 571.274,310.867 C579.586,319.204 583.746,329.182 583.746,341.022 C583.746,352.641 579.590,362.619 571.274,370.956 C562.958,379.248 552.979,383.417 541.545,383.417 ZM426.575,342.486 C413.894,342.486 403.086,338.095 394.144,329.182 C385.203,320.224 380.838,309.226 380.838,296.543 C380.838,283.861 385.203,273.262 394.144,264.304 C403.081,255.390 413.894,251.000 426.575,251.000 C439.255,251.000 450.068,255.390 459.005,264.304 C467.946,273.262 472.519,283.861 472.519,296.543 C472.519,309.226 467.946,320.224 459.005,329.182 C450.068,338.095 439.255,342.486 426.575,342.486 ZM317.011,583.372 C309.320,583.372 302.667,580.490 297.052,574.858 C291.437,569.270 288.736,562.618 288.736,554.902 C288.736,547.230 291.544,540.667 297.052,535.390 C302.769,529.847 309.320,526.831 317.011,526.831 C324.706,526.831 331.252,529.847 336.969,535.390 C342.478,540.667 345.285,547.230 345.285,554.902 C345.285,562.618 342.584,569.270 336.969,574.858 C331.354,580.490 324.701,583.372 317.011,583.372 ZM317.011,361.998 C311.609,361.998 306.482,360.091 302.250,355.967 C293.588,347.586 293.588,334.237 302.250,325.856 C306.482,321.732 311.604,319.825 317.011,319.825 C322.626,319.825 327.815,321.688 331.980,325.856 C340.300,334.149 340.300,347.674 331.980,355.967 C327.815,360.135 322.626,361.998 317.011,361.998 ZM267.740,472.818 C260.878,472.818 254.851,470.512 250.070,465.723 C245.289,460.933 243.000,454.902 243.000,448.073 C243.000,441.199 245.289,435.390 250.070,430.601 C254.851,425.812 260.878,423.328 267.740,423.328 C274.601,423.328 280.216,425.811 284.997,430.601 C289.778,435.390 292.271,441.199 292.276,448.073 C292.276,454.902 289.778,460.933 284.997,465.723 C280.212,470.512 274.601,472.818 267.740,472.818 ZM426.575,567.585 C435.516,567.585 442.998,570.689 449.026,576.720 C455.262,582.973 458.380,590.645 458.380,599.603 C458.380,608.339 455.213,615.745 449.026,621.820 C442.945,627.807 435.516,631.000 426.575,631.000 C417.846,631.000 410.310,627.940 404.123,621.820 C398.047,615.878 394.978,608.339 394.978,599.603 C394.978,590.645 398.043,583.106 404.123,576.942 C410.306,570.645 417.841,567.585 426.575,567.585 ZM536.347,522.485 C546.118,522.485 554.172,525.856 561.086,532.685 C568.107,539.559 571.691,547.629 571.691,557.386 C571.691,567.186 568.156,575.479 561.086,582.574 C554.225,589.403 546.118,592.729 536.347,592.729 C526.367,592.729 517.998,589.448 511.190,582.574 C504.275,575.523 501.002,567.186 501.002,557.386 C501.002,547.629 504.329,539.514 511.190,532.685 C518.051,525.811 526.367,522.485 536.347,522.485 Z" class="cls-1"/>
  <path d="M677.516,162.796 C677.516,164.476 677.735,166.066 678.176,167.566 C678.615,169.066 679.265,170.366 680.126,171.466 C680.985,172.567 682.076,173.446 683.396,174.106 C684.716,174.766 686.235,175.096 687.956,175.096 C690.315,175.096 692.336,174.476 694.016,173.236 C695.696,171.997 696.815,170.236 697.376,167.956 L701.396,167.956 C700.955,169.436 700.376,170.806 699.656,172.066 C698.936,173.326 698.036,174.427 696.956,175.366 C695.876,176.306 694.595,177.037 693.116,177.556 C691.635,178.075 689.915,178.336 687.956,178.336 C685.475,178.336 683.336,177.916 681.536,177.076 C679.736,176.236 678.255,175.087 677.096,173.626 C675.935,172.166 675.075,170.446 674.516,168.466 C673.955,166.486 673.676,164.356 673.676,162.076 C673.676,159.796 674.006,157.657 674.666,155.656 C675.326,153.656 676.265,151.906 677.486,150.406 C678.705,148.906 680.195,147.727 681.956,146.866 C683.715,146.006 685.715,145.576 687.956,145.576 C692.235,145.576 695.595,147.046 698.036,149.986 C700.475,152.926 701.675,157.196 701.636,162.796 L677.516,162.796 ZM697.166,155.506 C696.746,154.166 696.125,153.007 695.306,152.026 C694.485,151.046 693.455,150.266 692.216,149.686 C690.975,149.107 689.555,148.816 687.956,148.816 C686.355,148.816 684.945,149.116 683.726,149.716 C682.505,150.316 681.465,151.117 680.606,152.116 C679.745,153.116 679.055,154.276 678.536,155.596 C678.015,156.916 677.675,158.317 677.516,159.796 L697.796,159.796 C697.796,158.276 697.586,156.847 697.166,155.506 ZM653.456,159.166 C654.935,159.626 656.535,160.036 658.256,160.396 C659.975,160.756 661.575,161.266 663.056,161.926 C664.535,162.586 665.765,163.477 666.746,164.596 C667.725,165.716 668.216,167.276 668.216,169.276 C668.216,170.756 667.895,172.066 667.256,173.206 C666.615,174.346 665.735,175.297 664.616,176.056 C663.495,176.816 662.165,177.386 660.626,177.766 C659.085,178.146 657.395,178.336 655.556,178.336 C653.715,178.336 652.085,178.066 650.666,177.526 C649.245,176.986 648.035,176.236 647.036,175.276 C646.035,174.316 645.255,173.197 644.696,171.916 C644.135,170.636 643.815,169.256 643.736,167.776 L647.396,167.776 C647.955,170.456 648.965,172.346 650.426,173.446 C651.885,174.547 653.975,175.096 656.696,175.096 C658.016,175.096 659.156,174.937 660.116,174.616 C661.076,174.296 661.865,173.866 662.486,173.326 C663.105,172.786 663.575,172.177 663.896,171.496 C664.215,170.816 664.376,170.096 664.376,169.336 C664.376,167.816 663.885,166.687 662.906,165.946 C661.925,165.206 660.695,164.626 659.216,164.206 C657.735,163.786 656.135,163.426 654.416,163.126 C652.695,162.826 651.095,162.376 649.616,161.776 C648.135,161.176 646.905,160.316 645.926,159.196 C644.945,158.077 644.456,156.496 644.456,154.456 C644.456,151.856 645.405,149.726 647.306,148.066 C649.205,146.407 651.896,145.576 655.376,145.576 C658.736,145.576 661.466,146.326 663.566,147.826 C665.666,149.326 666.935,151.837 667.376,155.356 L663.716,155.356 C663.395,152.956 662.486,151.267 660.986,150.286 C659.486,149.306 657.596,148.816 655.316,148.816 C653.036,148.816 651.296,149.306 650.096,150.286 C648.896,151.267 648.296,152.557 648.296,154.156 C648.296,155.557 648.785,156.626 649.766,157.366 C650.745,158.107 651.975,158.707 653.456,159.166 ZM636.836,177.976 C636.275,177.976 635.735,177.916 635.216,177.796 C634.616,177.715 634.136,177.526 633.776,177.226 C633.416,176.926 633.125,176.566 632.906,176.146 C632.685,175.726 632.535,175.267 632.456,174.766 C632.375,174.266 632.336,173.737 632.336,173.176 C630.815,174.856 629.075,176.137 627.116,177.016 C625.155,177.895 623.036,178.336 620.756,178.336 C619.395,178.336 618.086,178.156 616.826,177.796 C615.566,177.436 614.456,176.876 613.496,176.116 C612.536,175.357 611.775,174.427 611.216,173.326 C610.655,172.226 610.376,170.917 610.376,169.396 C610.376,164.116 613.995,160.996 621.236,160.036 L626.216,159.376 C626.895,159.296 627.705,159.176 628.646,159.016 C629.585,158.857 630.356,158.636 630.956,158.356 C631.556,158.077 631.925,157.606 632.066,156.946 C632.205,156.286 632.276,155.677 632.276,155.116 C632.276,153.277 631.685,151.766 630.506,150.586 C629.325,149.407 627.335,148.816 624.536,148.816 C623.295,148.816 622.155,148.927 621.116,149.146 C620.075,149.366 619.166,149.746 618.386,150.286 C617.606,150.826 616.965,151.546 616.466,152.446 C615.965,153.346 615.635,154.477 615.476,155.836 L611.816,155.836 C611.936,153.997 612.356,152.426 613.076,151.126 C613.796,149.827 614.726,148.766 615.866,147.946 C617.006,147.127 618.326,146.527 619.826,146.146 C621.326,145.766 622.916,145.576 624.596,145.576 C626.156,145.576 627.626,145.747 629.006,146.086 C630.386,146.426 631.586,146.966 632.606,147.706 C633.626,148.447 634.425,149.437 635.006,150.676 C635.585,151.916 635.876,153.436 635.876,155.236 L635.876,172.156 C635.876,173.557 636.125,174.446 636.626,174.826 C637.125,175.207 638.135,175.117 639.656,174.556 L639.656,177.376 C639.375,177.457 638.966,177.576 638.426,177.736 C637.886,177.895 637.355,177.976 636.836,177.976 ZM632.276,161.176 C630.755,161.816 629.216,162.236 627.656,162.436 C626.096,162.637 624.536,162.796 622.976,162.916 C620.216,163.117 618.065,163.736 616.526,164.776 C614.985,165.817 614.216,167.396 614.216,169.516 C614.216,170.476 614.405,171.307 614.786,172.006 C615.165,172.706 615.665,173.287 616.286,173.746 C616.905,174.206 617.625,174.547 618.446,174.766 C619.265,174.986 620.096,175.096 620.936,175.096 C622.376,175.096 623.775,174.916 625.136,174.556 C626.495,174.196 627.705,173.647 628.766,172.906 C629.825,172.166 630.675,171.226 631.316,170.086 C631.955,168.946 632.276,167.596 632.276,166.036 L632.276,161.176 ZM602.095,100.216 L606.475,100.216 L606.475,105.496 L602.095,105.496 L602.095,100.216 ZM580.796,162.796 C580.796,164.476 581.015,166.066 581.456,167.566 C581.895,169.066 582.545,170.366 583.406,171.466 C584.265,172.567 585.356,173.446 586.676,174.106 C587.996,174.766 589.515,175.096 591.236,175.096 C593.595,175.096 595.616,174.476 597.296,173.236 C598.976,171.997 600.095,170.236 600.656,167.956 L604.676,167.956 C604.235,169.436 603.656,170.806 602.936,172.066 C602.216,173.326 601.316,174.427 600.236,175.366 C599.156,176.306 597.875,177.037 596.396,177.556 C594.915,178.075 593.195,178.336 591.236,178.336 C588.755,178.336 586.616,177.916 584.816,177.076 C583.016,176.236 581.535,175.087 580.376,173.626 C579.215,172.166 578.355,170.446 577.796,168.466 C577.235,166.486 576.956,164.356 576.956,162.076 C576.956,159.796 577.286,157.657 577.946,155.656 C578.606,153.656 579.545,151.906 580.766,150.406 C581.985,148.906 583.475,147.727 585.236,146.866 C586.995,146.006 588.995,145.576 591.236,145.576 C595.515,145.576 598.875,147.046 601.316,149.986 C603.755,152.926 604.955,157.196 604.916,162.796 L580.796,162.796 ZM600.446,155.506 C600.026,154.166 599.405,153.007 598.586,152.026 C597.765,151.046 596.735,150.266 595.496,149.686 C594.255,149.107 592.835,148.816 591.236,148.816 C589.635,148.816 588.225,149.116 587.006,149.716 C585.785,150.316 584.745,151.117 583.886,152.116 C583.025,153.116 582.335,154.276 581.816,155.596 C581.295,156.916 580.955,158.317 580.796,159.796 L601.076,159.796 C601.076,158.276 600.866,156.847 600.446,155.506 ZM585.415,100.216 L589.795,100.216 L589.795,105.496 L585.415,105.496 L585.415,100.216 ZM568.735,100.216 L573.115,100.216 L573.115,105.496 L568.735,105.496 L568.735,100.216 ZM569.397,177.496 L565.797,177.496 L565.797,134.296 L569.397,134.296 L569.397,177.496 ZM554.996,113.476 C553.916,114.916 552.436,116.065 550.556,116.926 C548.675,117.786 546.256,118.216 543.296,118.216 C541.016,118.216 539.056,117.925 537.416,117.346 C535.775,116.766 534.436,116.035 533.396,115.156 C532.355,114.276 531.566,113.305 531.026,112.246 C530.486,111.186 530.195,110.196 530.156,109.276 L533.996,109.276 C534.275,110.436 534.716,111.385 535.316,112.126 C535.916,112.866 536.626,113.446 537.446,113.866 C538.265,114.286 539.176,114.576 540.176,114.736 C541.175,114.895 542.216,114.976 543.296,114.976 C545.735,114.976 547.696,114.556 549.176,113.716 C550.655,112.876 551.776,111.775 552.536,110.416 C553.295,109.056 553.786,107.515 554.006,105.796 C554.225,104.077 554.315,102.316 554.276,100.516 C553.115,102.436 551.525,103.886 549.506,104.866 C547.486,105.846 545.375,106.336 543.176,106.336 C540.815,106.336 538.766,105.886 537.026,104.986 C535.286,104.086 533.846,102.886 532.706,101.386 C531.566,99.886 530.716,98.137 530.156,96.136 C529.595,94.136 529.316,92.056 529.316,89.896 C529.316,87.616 529.576,85.477 530.096,83.476 C530.615,81.476 531.446,79.747 532.586,78.286 C533.726,76.826 535.175,75.676 536.936,74.836 C538.696,73.996 540.836,73.576 543.356,73.576 C544.355,73.576 545.375,73.717 546.416,73.996 C547.456,74.276 548.465,74.677 549.446,75.196 C550.426,75.716 551.326,76.376 552.146,77.176 C552.965,77.977 553.636,78.877 554.156,79.876 L554.276,79.876 L554.276,74.416 L557.876,74.416 L557.876,102.496 C557.876,104.576 557.666,106.566 557.246,108.466 C556.826,110.365 556.076,112.036 554.996,113.476 ZM553.586,84.826 C553.126,83.206 552.455,81.806 551.576,80.626 C550.696,79.447 549.596,78.517 548.276,77.836 C546.956,77.156 545.456,76.816 543.776,76.816 C542.255,76.816 540.856,77.086 539.576,77.626 C538.295,78.166 537.176,78.956 536.216,79.996 C535.256,81.037 534.506,82.306 533.966,83.806 C533.426,85.306 533.156,87.037 533.156,88.996 C533.075,90.956 533.236,92.786 533.636,94.486 C534.035,96.187 534.676,97.676 535.556,98.956 C536.435,100.237 537.556,101.246 538.916,101.986 C540.275,102.727 541.895,103.096 543.776,103.096 C545.416,103.096 546.886,102.746 548.186,102.046 C549.485,101.347 550.586,100.406 551.486,99.226 C552.386,98.047 553.076,96.667 553.556,95.086 C554.036,93.506 554.276,91.837 554.276,90.076 C554.276,88.196 554.045,86.446 553.586,84.826 ZM532.617,151.876 L532.737,151.876 C533.256,150.877 533.927,149.977 534.747,149.176 C535.566,148.376 536.466,147.716 537.447,147.196 C538.427,146.677 539.436,146.276 540.477,145.996 C541.517,145.717 542.537,145.576 543.537,145.576 C546.057,145.576 548.196,145.996 549.957,146.836 C551.717,147.676 553.167,148.826 554.307,150.286 C555.447,151.747 556.277,153.476 556.797,155.476 C557.316,157.477 557.577,159.616 557.577,161.896 C557.577,164.056 557.297,166.136 556.737,168.136 C556.176,170.137 555.327,171.886 554.187,173.386 C553.047,174.886 551.607,176.086 549.867,176.986 C548.127,177.886 546.077,178.336 543.717,178.336 C541.517,178.336 539.406,177.846 537.387,176.866 C535.367,175.886 533.777,174.436 532.617,172.516 L532.617,189.736 L529.017,189.736 L529.017,146.416 L532.617,146.416 L532.617,151.876 ZM533.337,167.086 C533.817,168.667 534.507,170.047 535.407,171.226 C536.307,172.406 537.407,173.347 538.707,174.046 C540.006,174.746 541.476,175.096 543.117,175.096 C544.956,175.096 546.567,174.727 547.947,173.986 C549.327,173.246 550.457,172.237 551.337,170.956 C552.216,169.676 552.857,168.187 553.257,166.486 C553.656,164.786 553.817,162.956 553.737,160.996 C553.737,159.037 553.467,157.306 552.927,155.806 C552.387,154.306 551.637,153.037 550.677,151.996 C549.717,150.956 548.597,150.166 547.317,149.626 C546.036,149.086 544.637,148.816 543.117,148.816 C541.437,148.816 539.937,149.156 538.617,149.836 C537.297,150.517 536.196,151.447 535.317,152.626 C534.437,153.806 533.766,155.206 533.307,156.826 C532.847,158.446 532.617,160.196 532.617,162.076 C532.617,163.837 532.857,165.506 533.337,167.086 ZM517.976,85.216 C517.976,82.417 517.355,80.317 516.116,78.916 C514.876,77.516 512.816,76.816 509.936,76.816 C508.816,76.816 507.796,76.987 506.876,77.326 C505.955,77.666 505.126,78.116 504.386,78.676 C503.645,79.237 503.015,79.876 502.496,80.596 C501.976,81.316 501.575,82.076 501.296,82.876 C500.936,83.876 500.716,84.836 500.636,85.756 C500.555,86.677 500.516,87.676 500.516,88.756 L500.516,105.496 L496.916,105.496 L496.916,74.416 L500.516,74.416 L500.516,78.736 C501.956,77.216 503.446,75.976 504.986,75.016 C506.525,74.056 508.376,73.576 510.536,73.576 C512.456,73.576 514.235,73.906 515.876,74.566 C517.516,75.226 518.896,76.376 520.016,78.016 C520.775,79.136 521.225,80.287 521.366,81.466 C521.506,82.646 521.576,83.876 521.576,85.156 L521.576,105.496 L517.976,105.496 L517.976,85.216 ZM500.097,137.776 L500.097,146.416 L505.917,146.416 L505.917,149.416 L500.097,149.416 L500.097,170.716 C500.097,171.476 500.117,172.136 500.157,172.696 C500.197,173.257 500.316,173.716 500.517,174.076 C500.717,174.436 501.027,174.697 501.447,174.856 C501.867,175.016 502.457,175.096 503.217,175.096 C503.697,175.096 504.186,175.057 504.687,174.976 C505.187,174.896 505.677,174.796 506.157,174.676 L506.157,177.616 C505.716,177.696 505.137,177.835 504.417,178.036 C503.697,178.236 502.896,178.336 502.017,178.336 C500.217,178.336 498.846,177.886 497.907,176.986 C496.967,176.086 496.497,174.476 496.497,172.156 L496.497,149.416 L492.117,149.416 L492.117,146.416 L496.497,146.416 L496.497,137.776 L500.097,137.776 ZM483.957,62.296 L487.917,62.296 L487.917,67.636 L483.957,67.636 L483.957,62.296 ZM484.137,74.416 L487.737,74.416 L487.737,105.496 L484.137,105.496 L484.137,74.416 ZM486.327,153.466 C486.467,154.646 486.537,155.876 486.537,157.156 L486.537,177.496 L482.937,177.496 L482.937,157.216 C482.937,154.417 482.316,152.317 481.077,150.916 C479.837,149.516 477.777,148.816 474.897,148.816 C473.777,148.816 472.757,148.987 471.837,149.326 C470.917,149.666 470.087,150.116 469.347,150.676 C468.607,151.237 467.977,151.876 467.457,152.596 C466.937,153.316 466.536,154.076 466.257,154.876 C465.897,155.876 465.677,156.836 465.597,157.756 C465.517,158.677 465.477,159.676 465.477,160.756 L465.477,177.496 L461.877,177.496 L461.877,146.416 L465.477,146.416 L465.477,150.736 C466.917,149.216 468.407,147.976 469.947,147.016 C471.487,146.056 473.337,145.576 475.497,145.576 C477.417,145.576 479.197,145.906 480.837,146.566 C482.477,147.226 483.857,148.376 484.977,150.016 C485.737,151.136 486.186,152.287 486.327,153.466 ZM476.097,106.036 C475.377,106.236 474.576,106.336 473.697,106.336 C471.897,106.336 470.526,105.886 469.587,104.986 C468.646,104.086 468.177,102.476 468.177,100.156 L468.177,77.416 L463.797,77.416 L463.797,74.416 L468.177,74.416 L468.177,65.776 L471.777,65.776 L471.777,74.416 L477.597,74.416 L477.597,77.416 L471.777,77.416 L471.777,98.716 C471.777,99.476 471.796,100.136 471.837,100.696 C471.876,101.257 471.996,101.716 472.197,102.076 C472.396,102.436 472.707,102.697 473.127,102.856 C473.547,103.016 474.136,103.096 474.897,103.096 C475.377,103.096 475.866,103.057 476.367,102.976 C476.866,102.896 477.357,102.796 477.837,102.676 L477.837,105.616 C477.396,105.696 476.817,105.835 476.097,106.036 ZM438.297,99.016 C439.137,100.256 440.217,101.246 441.537,101.986 C442.857,102.727 444.456,103.096 446.337,103.096 C449.016,103.096 451.167,102.356 452.787,100.876 C454.407,99.397 455.436,97.357 455.877,94.756 L459.717,94.756 C459.396,96.476 458.886,98.047 458.187,99.466 C457.487,100.886 456.587,102.106 455.487,103.126 C454.386,104.146 453.077,104.936 451.557,105.496 C450.036,106.056 448.296,106.336 446.337,106.336 C443.856,106.336 441.717,105.916 439.917,105.076 C438.117,104.236 436.637,103.087 435.477,101.626 C434.316,100.166 433.457,98.437 432.897,96.436 C432.336,94.436 432.057,92.296 432.057,90.016 C432.057,87.856 432.366,85.786 432.987,83.806 C433.607,81.826 434.517,80.077 435.717,78.556 C436.917,77.036 438.406,75.826 440.187,74.926 C441.966,74.026 444.017,73.576 446.337,73.576 C449.937,73.576 452.847,74.437 455.067,76.156 C457.287,77.876 458.676,80.557 459.237,84.196 L455.577,84.196 C454.936,81.877 453.837,80.066 452.277,78.766 C450.717,77.467 448.737,76.816 446.337,76.816 C444.496,76.816 442.917,77.197 441.597,77.956 C440.277,78.716 439.197,79.726 438.357,80.986 C437.517,82.246 436.896,83.666 436.497,85.246 C436.096,86.827 435.897,88.417 435.897,90.016 C435.897,91.657 436.086,93.256 436.467,94.816 C436.846,96.376 437.457,97.777 438.297,99.016 ZM441.177,145.576 C445.457,145.576 448.817,147.046 451.257,149.986 C453.697,152.926 454.897,157.196 454.857,162.796 L430.737,162.796 C430.737,164.476 430.957,166.066 431.397,167.566 C431.837,169.066 432.487,170.366 433.347,171.466 C434.207,172.567 435.297,173.446 436.617,174.106 C437.937,174.766 439.457,175.096 441.177,175.096 C443.537,175.096 445.557,174.476 447.237,173.236 C448.917,171.997 450.037,170.236 450.597,167.956 L454.617,167.956 C454.177,169.436 453.597,170.806 452.877,172.066 C452.157,173.326 451.257,174.427 450.177,175.366 C449.097,176.306 447.817,177.037 446.337,177.556 C444.857,178.075 443.137,178.336 441.177,178.336 C438.697,178.336 436.557,177.916 434.757,177.076 C432.957,176.236 431.477,175.087 430.317,173.626 C429.157,172.166 428.297,170.446 427.737,168.466 C427.177,166.486 426.897,164.356 426.897,162.076 C426.897,159.796 427.227,157.657 427.887,155.656 C428.547,153.656 429.487,151.906 430.707,150.406 C431.927,148.906 433.417,147.727 435.177,146.866 C436.937,146.006 438.937,145.576 441.177,145.576 ZM431.757,155.596 C431.237,156.916 430.897,158.317 430.737,159.796 L451.017,159.796 C451.017,158.276 450.807,156.847 450.387,155.506 C449.967,154.166 449.347,153.007 448.527,152.026 C447.707,151.046 446.677,150.266 445.437,149.686 C444.197,149.107 442.777,148.816 441.177,148.816 C439.577,148.816 438.167,149.116 436.947,149.716 C435.727,150.316 434.687,151.117 433.827,152.116 C432.967,153.116 432.277,154.276 431.757,155.596 ZM403.077,95.566 C403.517,97.066 404.166,98.366 405.027,99.466 C405.887,100.567 406.977,101.446 408.297,102.106 C409.617,102.766 411.137,103.096 412.857,103.096 C415.217,103.096 417.237,102.476 418.917,101.236 C420.597,99.997 421.716,98.236 422.277,95.956 L426.297,95.956 C425.856,97.436 425.277,98.806 424.557,100.066 C423.837,101.326 422.937,102.427 421.857,103.366 C420.777,104.306 419.496,105.037 418.017,105.556 C416.537,106.075 414.816,106.336 412.857,106.336 C410.376,106.336 408.237,105.916 406.437,105.076 C404.637,104.236 403.157,103.087 401.997,101.626 C400.836,100.166 399.977,98.446 399.417,96.466 C398.856,94.486 398.577,92.356 398.577,90.076 C398.577,87.796 398.907,85.657 399.567,83.656 C400.227,81.656 401.166,79.906 402.387,78.406 C403.607,76.906 405.096,75.727 406.857,74.866 C408.617,74.006 410.616,73.576 412.857,73.576 C417.137,73.576 420.497,75.046 422.937,77.986 C425.376,80.926 426.576,85.196 426.537,90.796 L402.417,90.796 C402.417,92.476 402.636,94.066 403.077,95.566 ZM422.697,87.796 C422.697,86.276 422.487,84.847 422.067,83.506 C421.647,82.166 421.026,81.007 420.207,80.026 C419.387,79.046 418.356,78.266 417.117,77.686 C415.877,77.107 414.456,76.816 412.857,76.816 C411.257,76.816 409.847,77.116 408.627,77.716 C407.406,78.316 406.367,79.117 405.507,80.116 C404.646,81.116 403.956,82.276 403.437,83.596 C402.917,84.916 402.576,86.317 402.417,87.796 L422.697,87.796 ZM400.498,151.576 C401.537,149.536 402.928,148.027 404.668,147.046 C406.408,146.066 408.397,145.576 410.638,145.576 C412.757,145.576 414.448,145.927 415.708,146.626 C416.968,147.326 417.937,148.246 418.618,149.386 C419.297,150.526 419.747,151.837 419.968,153.316 C420.187,154.796 420.298,156.316 420.298,157.876 L420.298,177.496 L416.698,177.496 L416.698,156.016 C416.698,153.776 416.227,152.017 415.288,150.736 C414.347,149.456 412.597,148.816 410.038,148.816 C408.718,148.816 407.447,149.107 406.228,149.686 C405.007,150.266 403.937,151.156 403.018,152.356 C402.617,152.876 402.287,153.487 402.028,154.186 C401.767,154.886 401.557,155.617 401.398,156.376 C401.237,157.136 401.128,157.897 401.068,158.656 C401.008,159.416 400.978,160.117 400.978,160.756 L400.978,177.496 L397.378,177.496 L397.378,156.016 C397.378,153.776 396.907,152.017 395.968,150.736 C395.027,149.456 393.277,148.816 390.718,148.816 C389.398,148.816 388.127,149.107 386.908,149.686 C385.687,150.266 384.617,151.156 383.698,152.356 C383.297,152.876 382.967,153.487 382.708,154.186 C382.447,154.886 382.237,155.617 382.078,156.376 C381.917,157.136 381.808,157.897 381.748,158.656 C381.688,159.416 381.658,160.117 381.658,160.756 L381.658,177.496 L378.058,177.496 L378.058,146.416 L381.658,146.416 L381.658,151.096 L381.778,151.096 C382.697,149.296 384.017,147.926 385.738,146.986 C387.457,146.047 389.338,145.576 391.378,145.576 C392.818,145.576 394.037,145.736 395.038,146.056 C396.037,146.377 396.887,146.806 397.588,147.346 C398.287,147.886 398.867,148.516 399.328,149.236 C399.787,149.956 400.177,150.736 400.498,151.576 ZM387.897,85.216 C387.897,82.417 387.276,80.317 386.037,78.916 C384.797,77.516 382.737,76.816 379.857,76.816 C378.737,76.816 377.717,76.987 376.797,77.326 C375.876,77.666 375.047,78.116 374.307,78.676 C373.566,79.237 372.936,79.876 372.417,80.596 C371.897,81.316 371.496,82.076 371.217,82.876 C370.857,83.876 370.637,84.836 370.557,85.756 C370.476,86.677 370.437,87.676 370.437,88.756 L370.437,105.496 L366.837,105.496 L366.837,74.416 L370.437,74.416 L370.437,78.736 C371.877,77.216 373.367,75.976 374.907,75.016 C376.446,74.056 378.297,73.576 380.457,73.576 C382.377,73.576 384.156,73.906 385.797,74.566 C387.437,75.226 388.817,76.376 389.937,78.016 C390.696,79.136 391.146,80.287 391.287,81.466 C391.427,82.646 391.497,83.876 391.497,85.156 L391.497,105.496 L387.897,105.496 L387.897,85.216 ZM371.068,155.536 C371.647,157.537 371.938,159.676 371.938,161.956 C371.938,164.437 371.597,166.676 370.918,168.676 C370.237,170.677 369.268,172.396 368.008,173.836 C366.748,175.276 365.227,176.386 363.448,177.166 C361.667,177.946 359.698,178.336 357.538,178.336 C355.537,178.296 353.668,177.936 351.928,177.256 C350.188,176.576 348.667,175.556 347.368,174.196 C346.067,172.837 345.037,171.136 344.278,169.096 C343.517,167.056 343.138,164.677 343.138,161.956 C343.138,159.676 343.438,157.546 344.038,155.566 C344.638,153.586 345.538,151.856 346.738,150.376 C347.938,148.897 349.438,147.727 351.238,146.866 C353.038,146.006 355.138,145.576 357.538,145.576 C359.977,145.576 362.098,146.006 363.898,146.866 C365.698,147.727 367.198,148.886 368.398,150.346 C369.598,151.807 370.487,153.536 371.068,155.536 ZM367.498,156.796 C367.097,155.197 366.478,153.806 365.638,152.626 C364.798,151.447 363.718,150.517 362.398,149.836 C361.078,149.156 359.458,148.816 357.538,148.816 C355.657,148.816 354.047,149.186 352.708,149.926 C351.367,150.667 350.278,151.646 349.438,152.866 C348.598,154.087 347.977,155.486 347.578,157.066 C347.177,158.647 346.978,160.276 346.978,161.956 C346.978,163.876 347.207,165.646 347.668,167.266 C348.127,168.886 348.797,170.276 349.678,171.436 C350.557,172.597 351.658,173.497 352.978,174.136 C354.298,174.776 355.817,175.096 357.538,175.096 C359.417,175.096 361.027,174.727 362.368,173.986 C363.707,173.246 364.798,172.256 365.638,171.016 C366.478,169.777 367.097,168.376 367.498,166.816 C367.897,165.256 368.098,163.636 368.098,161.956 C368.098,160.117 367.897,158.396 367.498,156.796 ZM354.537,85.216 C354.537,82.417 353.916,80.317 352.677,78.916 C351.437,77.516 349.377,76.816 346.497,76.816 C345.377,76.816 344.357,76.987 343.437,77.326 C342.516,77.666 341.687,78.116 340.947,78.676 C340.206,79.237 339.576,79.876 339.057,80.596 C338.537,81.316 338.136,82.076 337.857,82.876 C337.497,83.876 337.277,84.836 337.197,85.756 C337.116,86.677 337.077,87.676 337.077,88.756 L337.077,105.496 L333.477,105.496 L333.477,74.416 L337.077,74.416 L337.077,78.736 C338.517,77.216 340.007,75.976 341.547,75.016 C343.086,74.056 344.937,73.576 347.097,73.576 C349.017,73.576 350.796,73.906 352.437,74.566 C354.077,75.226 355.457,76.376 356.577,78.016 C357.336,79.136 357.786,80.287 357.927,81.466 C358.067,82.646 358.137,83.876 358.137,85.156 L358.137,105.496 L354.537,105.496 L354.537,85.216 ZM336.628,153.316 C336.847,154.796 336.958,156.316 336.958,157.876 L336.958,177.496 L333.358,177.496 L333.358,156.016 C333.358,153.776 332.887,152.017 331.948,150.736 C331.008,149.456 329.257,148.816 326.698,148.816 C325.378,148.816 324.108,149.107 322.888,149.686 C321.667,150.266 320.598,151.156 319.678,152.356 C319.278,152.876 318.948,153.487 318.688,154.186 C318.427,154.886 318.217,155.617 318.058,156.376 C317.898,157.136 317.788,157.897 317.728,158.656 C317.668,159.416 317.638,160.117 317.638,160.756 L317.638,177.496 L314.038,177.496 L314.038,156.016 C314.038,153.776 313.567,152.017 312.628,150.736 C311.688,149.456 309.937,148.816 307.378,148.816 C306.058,148.816 304.788,149.107 303.568,149.686 C302.347,150.266 301.278,151.156 300.358,152.356 C299.958,152.876 299.628,153.487 299.368,154.186 C299.107,154.886 298.897,155.617 298.738,156.376 C298.578,157.136 298.468,157.897 298.408,158.656 C298.348,159.416 298.318,160.117 298.318,160.756 L298.318,177.496 L294.718,177.496 L294.718,146.416 L298.318,146.416 L298.318,151.096 L298.438,151.096 C299.358,149.296 300.678,147.926 302.398,146.986 C304.117,146.047 305.998,145.576 308.038,145.576 C309.478,145.576 310.698,145.736 311.698,146.056 C312.697,146.377 313.548,146.806 314.248,147.346 C314.947,147.886 315.528,148.516 315.988,149.236 C316.447,149.956 316.837,150.736 317.158,151.576 C318.198,149.536 319.588,148.027 321.328,147.046 C323.068,146.066 325.057,145.576 327.298,145.576 C329.418,145.576 331.108,145.927 332.368,146.626 C333.628,147.326 334.597,148.246 335.278,149.386 C335.958,150.526 336.408,151.837 336.628,153.316 ZM322.947,101.836 C321.687,103.276 320.166,104.386 318.387,105.166 C316.607,105.946 314.637,106.336 312.477,106.336 C310.476,106.296 308.607,105.936 306.867,105.256 C305.127,104.576 303.606,103.556 302.307,102.196 C301.007,100.837 299.976,99.136 299.217,97.096 C298.457,95.056 298.077,92.677 298.077,89.956 C298.077,87.676 298.377,85.546 298.977,83.566 C299.577,81.586 300.477,79.856 301.677,78.376 C302.877,76.897 304.377,75.727 306.177,74.866 C307.977,74.006 310.077,73.576 312.477,73.576 C314.916,73.576 317.037,74.006 318.837,74.866 C320.637,75.727 322.137,76.886 323.337,78.346 C324.537,79.807 325.427,81.536 326.007,83.536 C326.586,85.537 326.877,87.676 326.877,89.956 C326.877,92.437 326.537,94.676 325.857,96.676 C325.176,98.677 324.207,100.396 322.947,101.836 ZM322.437,84.796 C322.037,83.197 321.417,81.806 320.577,80.626 C319.737,79.447 318.657,78.517 317.337,77.836 C316.017,77.156 314.397,76.816 312.477,76.816 C310.596,76.816 308.987,77.186 307.647,77.926 C306.306,78.667 305.217,79.646 304.377,80.866 C303.537,82.087 302.916,83.486 302.517,85.066 C302.117,86.647 301.917,88.276 301.917,89.956 C301.917,91.876 302.147,93.646 302.607,95.266 C303.066,96.886 303.737,98.276 304.617,99.436 C305.496,100.597 306.597,101.497 307.917,102.136 C309.237,102.776 310.757,103.096 312.477,103.096 C314.357,103.096 315.966,102.727 317.307,101.986 C318.647,101.246 319.737,100.256 320.577,99.016 C321.417,97.777 322.037,96.376 322.437,94.816 C322.836,93.256 323.037,91.636 323.037,89.956 C323.037,88.117 322.836,86.396 322.437,84.796 ZM262.678,97.066 C263.837,98.887 265.397,100.357 267.358,101.476 C269.317,102.596 271.777,103.156 274.738,103.156 C276.577,103.156 278.257,102.856 279.778,102.256 C281.297,101.656 282.628,100.826 283.768,99.766 C284.908,98.707 285.868,97.456 286.648,96.016 C287.428,94.576 288.017,92.996 288.418,91.276 L292.678,91.276 C292.198,93.356 291.497,95.326 290.578,97.186 C289.657,99.046 288.448,100.676 286.948,102.076 C285.448,103.477 283.627,104.587 281.488,105.406 C279.347,106.225 276.838,106.636 273.958,106.636 C270.637,106.636 267.797,106.026 265.438,104.806 C263.077,103.586 261.148,101.936 259.648,99.856 C258.148,97.777 257.057,95.366 256.378,92.626 C255.697,89.887 255.358,86.977 255.358,83.896 C255.358,79.777 255.868,76.276 256.888,73.396 C257.908,70.516 259.318,68.167 261.118,66.346 C262.918,64.526 265.037,63.206 267.478,62.386 C269.917,61.567 272.578,61.156 275.458,61.156 C277.657,61.156 279.707,61.447 281.608,62.026 C283.507,62.606 285.187,63.476 286.648,64.636 C288.107,65.797 289.307,67.226 290.248,68.926 C291.187,70.627 291.838,72.596 292.198,74.836 L287.998,74.836 C287.158,71.156 285.598,68.536 283.318,66.976 C281.038,65.416 278.057,64.636 274.378,64.636 C271.777,64.636 269.537,65.156 267.658,66.196 C265.777,67.237 264.227,68.636 263.008,70.396 C261.787,72.157 260.887,74.186 260.308,76.486 C259.727,78.787 259.438,81.217 259.438,83.776 C259.438,86.176 259.687,88.537 260.188,90.856 C260.687,93.176 261.517,95.246 262.678,97.066 ZM267.898,149.986 C270.337,152.926 271.537,157.196 271.498,162.796 L247.378,162.796 C247.378,164.476 247.597,166.066 248.038,167.566 C248.478,169.066 249.127,170.366 249.988,171.466 C250.848,172.567 251.938,173.446 253.258,174.106 C254.578,174.766 256.098,175.096 257.818,175.096 C260.178,175.096 262.198,174.476 263.878,173.236 C265.558,171.997 266.677,170.236 267.238,167.956 L271.258,167.956 C270.817,169.436 270.238,170.806 269.518,172.066 C268.798,173.326 267.898,174.427 266.818,175.366 C265.738,176.306 264.457,177.037 262.978,177.556 C261.498,178.075 259.777,178.336 257.818,178.336 C255.337,178.336 253.198,177.916 251.398,177.076 C249.598,176.236 248.118,175.087 246.958,173.626 C245.797,172.166 244.938,170.446 244.378,168.466 C243.817,166.486 243.538,164.356 243.538,162.076 C243.538,159.796 243.868,157.657 244.528,155.656 C245.188,153.656 246.127,151.906 247.348,150.406 C248.568,148.906 250.057,147.727 251.818,146.866 C253.578,146.006 255.577,145.576 257.818,145.576 C262.098,145.576 265.458,147.046 267.898,149.986 ZM253.588,149.716 C252.367,150.316 251.328,151.117 250.468,152.116 C249.607,153.116 248.917,154.276 248.398,155.596 C247.878,156.916 247.537,158.317 247.378,159.796 L267.658,159.796 C267.658,158.276 267.448,156.847 267.028,155.506 C266.608,154.166 265.987,153.007 265.168,152.026 C264.348,151.046 263.317,150.266 262.078,149.686 C260.838,149.107 259.417,148.816 257.818,148.816 C256.218,148.816 254.808,149.116 253.588,149.716 ZM232.858,157.216 C232.858,154.417 232.237,152.317 230.998,150.916 C229.758,149.516 227.698,148.816 224.818,148.816 C223.698,148.816 222.678,148.987 221.758,149.326 C220.837,149.666 220.008,150.116 219.268,150.676 C218.527,151.237 217.897,151.876 217.378,152.596 C216.858,153.316 216.457,154.076 216.178,154.876 C215.818,155.876 215.598,156.836 215.518,157.756 C215.437,158.677 215.398,159.676 215.398,160.756 L215.398,177.496 L211.798,177.496 L211.798,146.416 L215.398,146.416 L215.398,150.736 C216.838,149.216 218.328,147.976 219.868,147.016 C221.407,146.056 223.258,145.576 225.418,145.576 C227.338,145.576 229.117,145.906 230.758,146.566 C232.398,147.226 233.778,148.376 234.898,150.016 C235.657,151.136 236.107,152.287 236.248,153.466 C236.388,154.646 236.458,155.876 236.458,157.156 L236.458,177.496 L232.858,177.496 L232.858,157.216 ZM199.138,171.946 C197.458,174.007 195.358,175.636 192.838,176.836 C190.318,178.036 187.398,178.636 184.078,178.636 C180.757,178.636 177.838,178.036 175.318,176.836 C172.798,175.636 170.698,174.007 169.018,171.946 C167.338,169.886 166.078,167.486 165.238,164.746 C164.398,162.007 163.978,159.076 163.978,155.956 C163.978,152.797 164.407,149.836 165.268,147.076 C166.128,144.316 167.398,141.907 169.078,139.846 C170.758,137.786 172.837,136.156 175.318,134.956 C177.798,133.756 180.658,133.156 183.898,133.156 C187.258,133.156 190.207,133.747 192.748,134.926 C195.288,136.106 197.407,137.726 199.108,139.786 C200.808,141.847 202.087,144.266 202.948,147.046 C203.808,149.827 204.238,152.797 204.238,155.956 C204.238,159.076 203.808,162.007 202.948,164.746 C202.087,167.486 200.818,169.886 199.138,171.946 ZM199.048,147.886 C198.307,145.507 197.238,143.476 195.838,141.796 C194.437,140.116 192.738,138.836 190.738,137.956 C188.737,137.077 186.498,136.636 184.018,136.636 C181.258,136.636 178.867,137.176 176.848,138.256 C174.828,139.336 173.167,140.767 171.868,142.546 C170.568,144.326 169.608,146.377 168.988,148.696 C168.367,151.016 168.058,153.436 168.058,155.956 C168.058,158.516 168.367,160.957 168.988,163.276 C169.608,165.596 170.568,167.636 171.868,169.396 C173.167,171.157 174.828,172.556 176.848,173.596 C178.867,174.637 181.297,175.156 184.138,175.156 C186.937,175.156 189.348,174.626 191.368,173.566 C193.387,172.507 195.048,171.097 196.348,169.336 C197.647,167.576 198.607,165.536 199.228,163.216 C199.848,160.897 200.158,158.476 200.158,155.956 C200.158,152.956 199.788,150.266 199.048,147.886 Z" class="cls-1"/>
</svg>
