<svg xmlns="http://www.w3.org/2000/svg" xmlns:xlink="http://www.w3.org/1999/xlink" preserveAspectRatio="xMidYMid" width="274" height="248" viewBox="0 0 274 248">
  <defs>
    <style>
      .cls-1 {
        fill: #fff;
        fill-rule: evenodd;
      }
    </style>
  </defs>
  <path d="M203.716,187.818 C200.835,190.685 197.408,192.093 193.435,192.093 C189.461,192.093 186.013,190.701 183.152,187.818 C180.329,184.968 178.946,181.604 178.946,177.643 C178.946,173.683 180.348,170.252 183.230,167.385 C186.113,164.519 189.463,163.110 193.435,163.110 C197.406,163.110 200.835,164.585 203.716,167.468 C206.597,170.335 208.000,173.683 208.000,177.643 C208.000,181.604 206.597,184.934 203.716,187.818 ZM177.856,153.482 C173.494,153.482 169.755,151.924 166.639,148.826 C163.525,145.710 161.966,141.982 161.966,137.640 C161.966,133.215 163.523,129.487 166.639,126.371 C169.677,123.339 173.416,121.798 177.856,121.798 C182.218,121.798 185.957,123.339 188.995,126.371 C192.109,129.487 193.667,133.215 193.667,137.640 C193.667,141.982 192.110,145.710 188.995,148.826 C185.879,151.924 182.140,153.482 177.856,153.482 ZM134.780,138.187 C130.029,138.187 125.979,136.546 122.629,133.215 C119.279,129.868 117.644,125.758 117.644,121.019 C117.644,116.279 119.279,112.319 122.629,108.972 C125.978,105.641 130.029,104.000 134.780,104.000 C139.531,104.000 143.582,105.641 146.931,108.972 C150.281,112.319 151.994,116.279 151.994,121.019 C151.994,125.758 150.281,129.868 146.931,133.215 C143.582,136.546 139.531,138.187 134.780,138.187 ZM93.730,228.202 C90.848,228.202 88.356,227.125 86.252,225.021 C84.148,222.933 83.136,220.447 83.136,217.563 C83.136,214.697 84.188,212.244 86.252,210.272 C88.394,208.201 90.848,207.074 93.730,207.074 C96.613,207.074 99.066,208.201 101.208,210.272 C103.271,212.244 104.323,214.697 104.323,217.563 C104.323,220.447 103.311,222.933 101.208,225.021 C99.104,227.125 96.611,228.202 93.730,228.202 ZM93.730,145.478 C91.706,145.478 89.785,144.766 88.199,143.224 C84.954,140.092 84.954,135.104 88.199,131.973 C89.785,130.431 91.704,129.719 93.730,129.719 C95.833,129.719 97.778,130.415 99.338,131.973 C102.456,135.071 102.456,140.126 99.338,143.224 C97.778,144.782 95.833,145.478 93.730,145.478 ZM75.269,186.890 C72.699,186.890 70.440,186.028 68.649,184.239 C66.857,182.449 66.000,180.195 66.000,177.643 C66.000,175.075 66.857,172.904 68.649,171.114 C70.440,169.324 72.699,168.396 75.269,168.396 C77.840,168.396 79.944,169.324 81.735,171.114 C83.526,172.904 84.460,175.075 84.462,177.643 C84.462,180.195 83.526,182.449 81.735,184.239 C79.942,186.028 77.840,186.890 75.269,186.890 ZM134.780,222.303 C138.130,222.303 140.933,223.463 143.192,225.717 C145.528,228.053 146.696,230.920 146.696,234.267 C146.696,237.532 145.510,240.299 143.192,242.570 C140.913,244.807 138.130,246.000 134.780,246.000 C131.510,246.000 128.686,244.856 126.368,242.570 C124.091,240.349 122.942,237.532 122.942,234.267 C122.942,230.920 124.090,228.103 126.368,225.799 C128.685,223.446 131.508,222.303 134.780,222.303 ZM175.908,205.450 C179.569,205.450 182.587,206.709 185.178,209.261 C187.808,211.830 189.151,214.846 189.151,218.491 C189.151,222.154 187.826,225.253 185.178,227.904 C182.607,230.456 179.569,231.699 175.908,231.699 C172.169,231.699 169.034,230.473 166.483,227.904 C163.892,225.269 162.666,222.154 162.666,218.491 C162.666,214.846 163.912,211.813 166.483,209.261 C169.054,206.693 172.169,205.450 175.908,205.450 Z" class="cls-1"/>
  <path d="M259.131,53.152 C259.131,53.992 259.241,54.787 259.461,55.537 C259.681,56.287 260.006,56.937 260.436,57.487 C260.866,58.037 261.411,58.477 262.071,58.807 C262.731,59.137 263.491,59.302 264.351,59.302 C265.531,59.302 266.541,58.992 267.381,58.372 C268.221,57.752 268.781,56.872 269.061,55.732 L271.071,55.732 C270.851,56.472 270.561,57.157 270.201,57.787 C269.841,58.417 269.391,58.967 268.851,59.437 C268.311,59.907 267.671,60.272 266.931,60.532 C266.191,60.792 265.331,60.922 264.351,60.922 C263.111,60.922 262.041,60.712 261.141,60.292 C260.241,59.872 259.501,59.297 258.921,58.567 C258.341,57.837 257.911,56.977 257.631,55.987 C257.351,54.997 257.211,53.932 257.211,52.792 C257.211,51.652 257.376,50.582 257.706,49.582 C258.036,48.582 258.506,47.707 259.116,46.957 C259.726,46.207 260.471,45.617 261.351,45.187 C262.231,44.757 263.231,44.542 264.351,44.542 C266.491,44.542 268.171,45.277 269.391,46.747 C270.611,48.217 271.211,50.352 271.191,53.152 L259.131,53.152 ZM268.956,49.507 C268.746,48.837 268.436,48.257 268.026,47.767 C267.616,47.277 267.101,46.887 266.481,46.597 C265.861,46.307 265.151,46.162 264.351,46.162 C263.551,46.162 262.846,46.312 262.236,46.612 C261.626,46.912 261.106,47.312 260.676,47.812 C260.246,48.312 259.901,48.892 259.641,49.552 C259.381,50.212 259.211,50.912 259.131,51.652 L269.271,51.652 C269.271,50.892 269.166,50.177 268.956,49.507 ZM247.101,51.337 C247.841,51.567 248.641,51.772 249.501,51.952 C250.361,52.132 251.161,52.387 251.901,52.717 C252.641,53.047 253.256,53.492 253.746,54.052 C254.236,54.612 254.481,55.392 254.481,56.392 C254.481,57.132 254.321,57.787 254.001,58.357 C253.681,58.927 253.241,59.402 252.681,59.782 C252.121,60.162 251.456,60.447 250.686,60.637 C249.916,60.827 249.071,60.922 248.151,60.922 C247.231,60.922 246.416,60.787 245.706,60.517 C244.996,60.247 244.391,59.872 243.891,59.392 C243.391,58.912 243.001,58.352 242.721,57.712 C242.441,57.072 242.281,56.382 242.241,55.642 L244.071,55.642 C244.351,56.982 244.856,57.927 245.586,58.477 C246.316,59.027 247.361,59.302 248.721,59.302 C249.381,59.302 249.951,59.222 250.431,59.062 C250.911,58.902 251.306,58.687 251.616,58.417 C251.926,58.147 252.161,57.842 252.321,57.502 C252.481,57.162 252.561,56.802 252.561,56.422 C252.561,55.662 252.316,55.097 251.826,54.727 C251.336,54.357 250.721,54.067 249.981,53.857 C249.241,53.647 248.441,53.467 247.581,53.317 C246.721,53.167 245.921,52.942 245.181,52.642 C244.441,52.342 243.826,51.912 243.336,51.352 C242.846,50.792 242.601,50.002 242.601,48.982 C242.601,47.682 243.076,46.617 244.026,45.787 C244.976,44.957 246.321,44.542 248.061,44.542 C249.741,44.542 251.106,44.917 252.156,45.667 C253.206,46.417 253.841,47.672 254.061,49.432 L252.231,49.432 C252.071,48.232 251.616,47.387 250.866,46.897 C250.116,46.407 249.171,46.162 248.031,46.162 C246.891,46.162 246.021,46.407 245.421,46.897 C244.821,47.387 244.521,48.032 244.521,48.832 C244.521,49.532 244.766,50.067 245.256,50.437 C245.746,50.807 246.361,51.107 247.101,51.337 ZM238.791,60.742 C238.511,60.742 238.241,60.712 237.981,60.652 C237.681,60.612 237.441,60.517 237.261,60.367 C237.081,60.217 236.936,60.037 236.826,59.827 C236.716,59.617 236.641,59.387 236.601,59.137 C236.561,58.887 236.541,58.622 236.541,58.342 C235.781,59.182 234.911,59.822 233.931,60.262 C232.951,60.702 231.891,60.922 230.751,60.922 C230.071,60.922 229.416,60.832 228.786,60.652 C228.156,60.472 227.601,60.192 227.121,59.812 C226.641,59.432 226.261,58.967 225.981,58.417 C225.701,57.867 225.561,57.212 225.561,56.452 C225.561,53.812 227.371,52.252 230.991,51.772 L233.481,51.442 C233.821,51.402 234.226,51.342 234.696,51.262 C235.166,51.182 235.551,51.072 235.851,50.932 C236.151,50.792 236.336,50.557 236.406,50.227 C236.476,49.897 236.511,49.592 236.511,49.312 C236.511,48.392 236.216,47.637 235.626,47.047 C235.036,46.457 234.041,46.162 232.641,46.162 C232.021,46.162 231.451,46.217 230.931,46.327 C230.411,46.437 229.956,46.627 229.566,46.897 C229.176,47.167 228.856,47.527 228.606,47.977 C228.356,48.427 228.191,48.992 228.111,49.672 L226.281,49.672 C226.341,48.752 226.551,47.967 226.911,47.317 C227.271,46.667 227.736,46.137 228.306,45.727 C228.876,45.317 229.536,45.017 230.286,44.827 C231.036,44.637 231.831,44.542 232.671,44.542 C233.451,44.542 234.186,44.627 234.876,44.797 C235.566,44.967 236.166,45.237 236.676,45.607 C237.186,45.977 237.586,46.472 237.876,47.092 C238.166,47.712 238.311,48.472 238.311,49.372 L238.311,57.832 C238.311,58.532 238.436,58.977 238.686,59.167 C238.936,59.357 239.441,59.312 240.201,59.032 L240.201,60.442 C240.061,60.482 239.856,60.542 239.586,60.622 C239.316,60.702 239.051,60.742 238.791,60.742 ZM236.511,52.342 C235.751,52.662 234.981,52.872 234.201,52.972 C233.421,53.072 232.641,53.152 231.861,53.212 C230.481,53.312 229.406,53.622 228.636,54.142 C227.866,54.662 227.481,55.452 227.481,56.512 C227.481,56.992 227.576,57.407 227.766,57.757 C227.956,58.107 228.206,58.397 228.516,58.627 C228.826,58.857 229.186,59.027 229.596,59.137 C230.006,59.247 230.421,59.302 230.841,59.302 C231.561,59.302 232.261,59.212 232.941,59.032 C233.621,58.852 234.226,58.577 234.756,58.207 C235.286,57.837 235.711,57.367 236.031,56.797 C236.351,56.227 236.511,55.552 236.511,54.772 L236.511,52.342 ZM221.421,21.862 L223.611,21.862 L223.611,24.502 L221.421,24.502 L221.421,21.862 ZM210.771,53.152 C210.771,53.992 210.881,54.787 211.101,55.537 C211.321,56.287 211.646,56.937 212.076,57.487 C212.506,58.037 213.051,58.477 213.711,58.807 C214.371,59.137 215.131,59.302 215.991,59.302 C217.171,59.302 218.181,58.992 219.021,58.372 C219.861,57.752 220.421,56.872 220.701,55.732 L222.711,55.732 C222.491,56.472 222.201,57.157 221.841,57.787 C221.481,58.417 221.031,58.967 220.491,59.437 C219.951,59.907 219.311,60.272 218.571,60.532 C217.831,60.792 216.971,60.922 215.991,60.922 C214.751,60.922 213.681,60.712 212.781,60.292 C211.881,59.872 211.141,59.297 210.561,58.567 C209.981,57.837 209.551,56.977 209.271,55.987 C208.991,54.997 208.851,53.932 208.851,52.792 C208.851,51.652 209.016,50.582 209.346,49.582 C209.676,48.582 210.146,47.707 210.756,46.957 C211.366,46.207 212.111,45.617 212.991,45.187 C213.871,44.757 214.871,44.542 215.991,44.542 C218.131,44.542 219.811,45.277 221.031,46.747 C222.251,48.217 222.851,50.352 222.831,53.152 L210.771,53.152 ZM220.596,49.507 C220.386,48.837 220.076,48.257 219.666,47.767 C219.256,47.277 218.741,46.887 218.121,46.597 C217.501,46.307 216.791,46.162 215.991,46.162 C215.191,46.162 214.486,46.312 213.876,46.612 C213.266,46.912 212.746,47.312 212.316,47.812 C211.886,48.312 211.541,48.892 211.281,49.552 C211.021,50.212 210.851,50.912 210.771,51.652 L220.911,51.652 C220.911,50.892 220.806,50.177 220.596,49.507 ZM213.081,21.862 L215.271,21.862 L215.271,24.502 L213.081,24.502 L213.081,21.862 ZM204.741,21.862 L206.931,21.862 L206.931,24.502 L204.741,24.502 L204.741,21.862 ZM205.072,60.502 L203.271,60.502 L203.271,38.902 L205.072,38.902 L205.072,60.502 ZM197.871,28.492 C197.331,29.212 196.591,29.787 195.651,30.217 C194.711,30.647 193.501,30.862 192.021,30.862 C190.881,30.862 189.901,30.717 189.081,30.427 C188.261,30.137 187.591,29.772 187.071,29.332 C186.551,28.892 186.156,28.407 185.886,27.877 C185.616,27.347 185.471,26.852 185.451,26.392 L187.371,26.392 C187.511,26.972 187.731,27.447 188.031,27.817 C188.331,28.187 188.686,28.477 189.096,28.687 C189.506,28.897 189.961,29.042 190.461,29.122 C190.961,29.202 191.481,29.242 192.021,29.242 C193.241,29.242 194.221,29.032 194.961,28.612 C195.701,28.192 196.261,27.642 196.641,26.962 C197.021,26.282 197.266,25.512 197.376,24.652 C197.486,23.792 197.531,22.912 197.511,22.012 C196.931,22.972 196.136,23.697 195.126,24.187 C194.116,24.677 193.061,24.922 191.961,24.922 C190.781,24.922 189.756,24.697 188.886,24.247 C188.016,23.797 187.296,23.197 186.726,22.447 C186.156,21.697 185.731,20.822 185.451,19.822 C185.171,18.822 185.031,17.782 185.031,16.702 C185.031,15.562 185.161,14.492 185.421,13.492 C185.681,12.492 186.096,11.627 186.666,10.897 C187.236,10.167 187.961,9.592 188.841,9.172 C189.721,8.752 190.791,8.542 192.051,8.542 C192.551,8.542 193.061,8.612 193.581,8.752 C194.101,8.892 194.606,9.092 195.096,9.352 C195.586,9.612 196.036,9.942 196.446,10.342 C196.856,10.742 197.191,11.192 197.451,11.692 L197.511,11.692 L197.511,8.962 L199.311,8.962 L199.311,23.002 C199.311,24.042 199.206,25.037 198.996,25.987 C198.786,26.937 198.411,27.772 197.871,28.492 ZM197.166,14.167 C196.936,13.357 196.601,12.657 196.161,12.067 C195.721,11.477 195.171,11.012 194.511,10.672 C193.851,10.332 193.101,10.162 192.261,10.162 C191.501,10.162 190.801,10.297 190.161,10.567 C189.521,10.837 188.961,11.232 188.481,11.752 C188.001,12.272 187.626,12.907 187.356,13.657 C187.086,14.407 186.951,15.272 186.951,16.252 C186.911,17.232 186.991,18.147 187.191,18.997 C187.391,19.847 187.711,20.592 188.151,21.232 C188.591,21.872 189.151,22.377 189.831,22.747 C190.511,23.117 191.321,23.302 192.261,23.302 C193.081,23.302 193.816,23.127 194.466,22.777 C195.116,22.427 195.666,21.957 196.116,21.367 C196.566,20.777 196.911,20.087 197.151,19.297 C197.391,18.507 197.511,17.672 197.511,16.792 C197.511,15.852 197.396,14.977 197.166,14.167 ZM186.682,47.692 L186.742,47.692 C187.001,47.192 187.337,46.742 187.747,46.342 C188.156,45.942 188.606,45.612 189.097,45.352 C189.587,45.092 190.091,44.892 190.612,44.752 C191.132,44.612 191.642,44.542 192.142,44.542 C193.402,44.542 194.471,44.752 195.352,45.172 C196.232,45.592 196.957,46.167 197.527,46.897 C198.097,47.627 198.512,48.492 198.772,49.492 C199.031,50.492 199.162,51.562 199.162,52.702 C199.162,53.782 199.022,54.822 198.742,55.822 C198.461,56.822 198.037,57.697 197.467,58.447 C196.897,59.197 196.177,59.797 195.307,60.247 C194.437,60.697 193.412,60.922 192.232,60.922 C191.132,60.922 190.076,60.677 189.067,60.187 C188.057,59.697 187.262,58.972 186.682,58.012 L186.682,66.622 L184.882,66.622 L184.882,44.962 L186.682,44.962 L186.682,47.692 ZM187.042,55.297 C187.282,56.087 187.627,56.777 188.077,57.367 C188.527,57.957 189.077,58.427 189.727,58.777 C190.376,59.127 191.111,59.302 191.932,59.302 C192.851,59.302 193.657,59.117 194.347,58.747 C195.037,58.377 195.602,57.872 196.042,57.232 C196.481,56.592 196.802,55.847 197.002,54.997 C197.201,54.147 197.282,53.232 197.242,52.252 C197.242,51.272 197.107,50.407 196.837,49.657 C196.567,48.907 196.192,48.272 195.712,47.752 C195.232,47.232 194.672,46.837 194.032,46.567 C193.391,46.297 192.692,46.162 191.932,46.162 C191.092,46.162 190.342,46.332 189.682,46.672 C189.022,47.012 188.471,47.477 188.032,48.067 C187.592,48.657 187.256,49.357 187.027,50.167 C186.797,50.977 186.682,51.852 186.682,52.792 C186.682,53.672 186.802,54.507 187.042,55.297 ZM179.361,14.362 C179.361,12.962 179.051,11.912 178.431,11.212 C177.811,10.512 176.781,10.162 175.341,10.162 C174.781,10.162 174.271,10.247 173.811,10.417 C173.351,10.587 172.936,10.812 172.566,11.092 C172.196,11.372 171.881,11.692 171.621,12.052 C171.361,12.412 171.161,12.792 171.021,13.192 C170.841,13.692 170.731,14.172 170.691,14.632 C170.651,15.092 170.631,15.592 170.631,16.132 L170.631,24.502 L168.831,24.502 L168.831,8.962 L170.631,8.962 L170.631,11.122 C171.351,10.362 172.096,9.742 172.866,9.262 C173.636,8.782 174.561,8.542 175.641,8.542 C176.601,8.542 177.491,8.707 178.311,9.037 C179.131,9.367 179.821,9.942 180.381,10.762 C180.761,11.322 180.986,11.897 181.056,12.487 C181.126,13.077 181.161,13.692 181.161,14.332 L181.161,24.502 L179.361,24.502 L179.361,14.362 ZM170.422,40.642 L170.422,44.962 L173.332,44.962 L173.332,46.462 L170.422,46.462 L170.422,57.112 C170.422,57.492 170.432,57.822 170.452,58.102 C170.471,58.382 170.531,58.612 170.632,58.792 C170.732,58.972 170.887,59.102 171.097,59.182 C171.307,59.262 171.602,59.302 171.982,59.302 C172.222,59.302 172.466,59.282 172.717,59.242 C172.967,59.202 173.212,59.152 173.452,59.092 L173.452,60.562 C173.231,60.602 172.942,60.672 172.582,60.772 C172.222,60.872 171.821,60.922 171.382,60.922 C170.482,60.922 169.796,60.697 169.327,60.247 C168.857,59.797 168.622,58.992 168.622,57.832 L168.622,46.462 L166.432,46.462 L166.432,44.962 L168.622,44.962 L168.622,40.642 L170.422,40.642 ZM162.352,2.902 L164.332,2.902 L164.332,5.572 L162.352,5.572 L162.352,2.902 ZM162.442,8.962 L164.242,8.962 L164.242,24.502 L162.442,24.502 L162.442,8.962 ZM163.537,48.487 C163.607,49.077 163.642,49.692 163.642,50.332 L163.642,60.502 L161.842,60.502 L161.842,50.362 C161.842,48.962 161.531,47.912 160.912,47.212 C160.292,46.512 159.262,46.162 157.822,46.162 C157.262,46.162 156.752,46.247 156.292,46.417 C155.831,46.587 155.417,46.812 155.047,47.092 C154.676,47.372 154.361,47.692 154.102,48.052 C153.842,48.412 153.641,48.792 153.502,49.192 C153.322,49.692 153.212,50.172 153.172,50.632 C153.131,51.092 153.112,51.592 153.112,52.132 L153.112,60.502 L151.312,60.502 L151.312,44.962 L153.112,44.962 L153.112,47.122 C153.832,46.362 154.577,45.742 155.347,45.262 C156.116,44.782 157.042,44.542 158.122,44.542 C159.082,44.542 159.971,44.707 160.792,45.037 C161.612,45.367 162.302,45.942 162.862,46.762 C163.241,47.322 163.466,47.897 163.537,48.487 ZM158.422,24.772 C158.062,24.872 157.661,24.922 157.222,24.922 C156.322,24.922 155.636,24.697 155.167,24.247 C154.696,23.797 154.462,22.992 154.462,21.832 L154.462,10.462 L152.272,10.462 L152.272,8.962 L154.462,8.962 L154.462,4.642 L156.262,4.642 L156.262,8.962 L159.172,8.962 L159.172,10.462 L156.262,10.462 L156.262,21.112 C156.262,21.492 156.271,21.822 156.292,22.102 C156.311,22.382 156.371,22.612 156.472,22.792 C156.571,22.972 156.727,23.102 156.937,23.182 C157.147,23.262 157.441,23.302 157.822,23.302 C158.062,23.302 158.306,23.282 158.557,23.242 C158.806,23.202 159.052,23.152 159.292,23.092 L159.292,24.562 C159.071,24.602 158.782,24.672 158.422,24.772 ZM139.522,21.262 C139.942,21.882 140.482,22.377 141.142,22.747 C141.802,23.117 142.601,23.302 143.542,23.302 C144.881,23.302 145.957,22.932 146.767,22.192 C147.577,21.452 148.091,20.432 148.312,19.132 L150.232,19.132 C150.071,19.992 149.816,20.777 149.467,21.487 C149.116,22.197 148.666,22.807 148.117,23.317 C147.566,23.827 146.911,24.222 146.152,24.502 C145.391,24.782 144.521,24.922 143.542,24.922 C142.301,24.922 141.232,24.712 140.332,24.292 C139.432,23.872 138.691,23.297 138.112,22.567 C137.531,21.837 137.101,20.972 136.822,19.972 C136.541,18.972 136.402,17.902 136.402,16.762 C136.402,15.682 136.556,14.647 136.867,13.657 C137.176,12.667 137.632,11.792 138.232,11.032 C138.832,10.272 139.576,9.667 140.467,9.217 C141.356,8.767 142.381,8.542 143.542,8.542 C145.342,8.542 146.797,8.972 147.907,9.832 C149.017,10.692 149.711,12.032 149.992,13.852 L148.162,13.852 C147.841,12.692 147.292,11.787 146.512,11.137 C145.732,10.487 144.742,10.162 143.542,10.162 C142.621,10.162 141.832,10.352 141.172,10.732 C140.512,11.112 139.972,11.617 139.552,12.247 C139.132,12.877 138.821,13.587 138.622,14.377 C138.421,15.167 138.322,15.962 138.322,16.762 C138.322,17.582 138.416,18.382 138.607,19.162 C138.796,19.942 139.102,20.642 139.522,21.262 ZM140.962,44.542 C143.102,44.542 144.782,45.277 146.002,46.747 C147.221,48.217 147.821,50.352 147.802,53.152 L135.742,53.152 C135.742,53.992 135.851,54.787 136.072,55.537 C136.292,56.287 136.616,56.937 137.047,57.487 C137.477,58.037 138.022,58.477 138.682,58.807 C139.342,59.137 140.102,59.302 140.962,59.302 C142.142,59.302 143.152,58.992 143.992,58.372 C144.832,57.752 145.391,56.872 145.672,55.732 L147.682,55.732 C147.461,56.472 147.172,57.157 146.812,57.787 C146.452,58.417 146.002,58.967 145.462,59.437 C144.922,59.907 144.281,60.272 143.542,60.532 C142.802,60.792 141.941,60.922 140.962,60.922 C139.721,60.922 138.652,60.712 137.752,60.292 C136.852,59.872 136.112,59.297 135.532,58.567 C134.951,57.837 134.522,56.977 134.242,55.987 C133.961,54.997 133.822,53.932 133.822,52.792 C133.822,51.652 133.987,50.582 134.317,49.582 C134.647,48.582 135.116,47.707 135.727,46.957 C136.337,46.207 137.081,45.617 137.962,45.187 C138.842,44.757 139.841,44.542 140.962,44.542 ZM136.252,49.552 C135.992,50.212 135.821,50.912 135.742,51.652 L145.882,51.652 C145.882,50.892 145.777,50.177 145.567,49.507 C145.357,48.837 145.046,48.257 144.637,47.767 C144.227,47.277 143.711,46.887 143.092,46.597 C142.472,46.307 141.761,46.162 140.962,46.162 C140.162,46.162 139.457,46.312 138.847,46.612 C138.236,46.912 137.717,47.312 137.287,47.812 C136.856,48.312 136.511,48.892 136.252,49.552 ZM121.912,19.537 C122.131,20.287 122.456,20.937 122.887,21.487 C123.316,22.037 123.862,22.477 124.522,22.807 C125.182,23.137 125.941,23.302 126.802,23.302 C127.981,23.302 128.992,22.992 129.832,22.372 C130.672,21.752 131.231,20.872 131.512,19.732 L133.522,19.732 C133.301,20.472 133.012,21.157 132.652,21.787 C132.292,22.417 131.842,22.967 131.302,23.437 C130.762,23.907 130.121,24.272 129.382,24.532 C128.641,24.792 127.781,24.922 126.802,24.922 C125.561,24.922 124.492,24.712 123.592,24.292 C122.692,23.872 121.951,23.297 121.372,22.567 C120.791,21.837 120.361,20.977 120.082,19.987 C119.801,18.997 119.662,17.932 119.662,16.792 C119.662,15.652 119.827,14.582 120.157,13.582 C120.487,12.582 120.956,11.707 121.567,10.957 C122.176,10.207 122.921,9.617 123.802,9.187 C124.681,8.757 125.681,8.542 126.802,8.542 C128.941,8.542 130.621,9.277 131.842,10.747 C133.061,12.217 133.661,14.352 133.642,17.152 L121.582,17.152 C121.582,17.992 121.691,18.787 121.912,19.537 ZM131.722,15.652 C131.722,14.892 131.617,14.177 131.407,13.507 C131.197,12.837 130.886,12.257 130.477,11.767 C130.066,11.277 129.551,10.887 128.932,10.597 C128.311,10.307 127.601,10.162 126.802,10.162 C126.001,10.162 125.296,10.312 124.687,10.612 C124.076,10.912 123.556,11.312 123.127,11.812 C122.696,12.312 122.351,12.892 122.092,13.552 C121.831,14.212 121.661,14.912 121.582,15.652 L131.722,15.652 ZM120.622,47.542 C121.142,46.522 121.837,45.767 122.707,45.277 C123.577,44.787 124.572,44.542 125.692,44.542 C126.752,44.542 127.597,44.717 128.227,45.067 C128.857,45.417 129.342,45.877 129.682,46.447 C130.022,47.017 130.247,47.672 130.357,48.412 C130.467,49.152 130.522,49.912 130.522,50.692 L130.522,60.502 L128.722,60.502 L128.722,49.762 C128.722,48.642 128.487,47.762 128.017,47.122 C127.547,46.482 126.672,46.162 125.392,46.162 C124.732,46.162 124.097,46.307 123.487,46.597 C122.877,46.887 122.342,47.332 121.882,47.932 C121.682,48.192 121.517,48.497 121.387,48.847 C121.257,49.197 121.152,49.562 121.072,49.942 C120.992,50.322 120.937,50.702 120.907,51.082 C120.877,51.462 120.862,51.812 120.862,52.132 L120.862,60.502 L119.062,60.502 L119.062,49.762 C119.062,48.642 118.827,47.762 118.357,47.122 C117.887,46.482 117.012,46.162 115.732,46.162 C115.072,46.162 114.437,46.307 113.827,46.597 C113.217,46.887 112.682,47.332 112.222,47.932 C112.022,48.192 111.857,48.497 111.727,48.847 C111.597,49.197 111.492,49.562 111.412,49.942 C111.332,50.322 111.277,50.702 111.247,51.082 C111.217,51.462 111.202,51.812 111.202,52.132 L111.202,60.502 L109.402,60.502 L109.402,44.962 L111.202,44.962 L111.202,47.302 L111.262,47.302 C111.722,46.402 112.382,45.717 113.242,45.247 C114.102,44.777 115.042,44.542 116.062,44.542 C116.782,44.542 117.392,44.622 117.892,44.782 C118.392,44.942 118.817,45.157 119.167,45.427 C119.517,45.697 119.807,46.012 120.037,46.372 C120.267,46.732 120.462,47.122 120.622,47.542 ZM114.322,14.362 C114.322,12.962 114.011,11.912 113.392,11.212 C112.771,10.512 111.742,10.162 110.302,10.162 C109.741,10.162 109.231,10.247 108.772,10.417 C108.311,10.587 107.896,10.812 107.527,11.092 C107.156,11.372 106.841,11.692 106.582,12.052 C106.321,12.412 106.121,12.792 105.982,13.192 C105.802,13.692 105.691,14.172 105.652,14.632 C105.611,15.092 105.592,15.592 105.592,16.132 L105.592,24.502 L103.792,24.502 L103.792,8.962 L105.592,8.962 L105.592,11.122 C106.312,10.362 107.056,9.742 107.827,9.262 C108.596,8.782 109.522,8.542 110.602,8.542 C111.562,8.542 112.451,8.707 113.272,9.037 C114.091,9.367 114.781,9.942 115.342,10.762 C115.721,11.322 115.946,11.897 116.017,12.487 C116.086,13.077 116.122,13.692 116.122,14.332 L116.122,24.502 L114.322,24.502 L114.322,14.362 ZM105.907,49.522 C106.197,50.522 106.342,51.592 106.342,52.732 C106.342,53.972 106.172,55.092 105.832,56.092 C105.492,57.092 105.007,57.952 104.377,58.672 C103.747,59.392 102.987,59.947 102.097,60.337 C101.207,60.727 100.222,60.922 99.142,60.922 C98.142,60.902 97.207,60.722 96.337,60.382 C95.467,60.042 94.707,59.532 94.057,58.852 C93.407,58.172 92.892,57.322 92.512,56.302 C92.132,55.282 91.942,54.092 91.942,52.732 C91.942,51.592 92.092,50.527 92.392,49.537 C92.692,48.547 93.142,47.682 93.742,46.942 C94.342,46.202 95.092,45.617 95.992,45.187 C96.892,44.757 97.942,44.542 99.142,44.542 C100.362,44.542 101.422,44.757 102.322,45.187 C103.222,45.617 103.972,46.197 104.572,46.927 C105.172,47.657 105.617,48.522 105.907,49.522 ZM104.122,50.152 C103.922,49.352 103.612,48.657 103.192,48.067 C102.772,47.477 102.232,47.012 101.572,46.672 C100.912,46.332 100.102,46.162 99.142,46.162 C98.202,46.162 97.397,46.347 96.727,46.717 C96.057,47.087 95.512,47.577 95.092,48.187 C94.672,48.797 94.362,49.497 94.162,50.287 C93.962,51.077 93.862,51.892 93.862,52.732 C93.862,53.692 93.977,54.577 94.207,55.387 C94.437,56.197 94.772,56.892 95.212,57.472 C95.652,58.052 96.202,58.502 96.862,58.822 C97.522,59.142 98.282,59.302 99.142,59.302 C100.082,59.302 100.887,59.117 101.557,58.747 C102.227,58.377 102.772,57.882 103.192,57.262 C103.612,56.642 103.922,55.942 104.122,55.162 C104.322,54.382 104.422,53.572 104.422,52.732 C104.422,51.812 104.322,50.952 104.122,50.152 ZM97.642,14.362 C97.642,12.962 97.331,11.912 96.712,11.212 C96.091,10.512 95.062,10.162 93.622,10.162 C93.061,10.162 92.551,10.247 92.092,10.417 C91.631,10.587 91.216,10.812 90.847,11.092 C90.476,11.372 90.161,11.692 89.902,12.052 C89.641,12.412 89.441,12.792 89.302,13.192 C89.122,13.692 89.011,14.172 88.972,14.632 C88.931,15.092 88.912,15.592 88.912,16.132 L88.912,24.502 L87.112,24.502 L87.112,8.962 L88.912,8.962 L88.912,11.122 C89.632,10.362 90.376,9.742 91.147,9.262 C91.916,8.782 92.842,8.542 93.922,8.542 C94.882,8.542 95.771,8.707 96.592,9.037 C97.411,9.367 98.101,9.942 98.662,10.762 C99.041,11.322 99.266,11.897 99.337,12.487 C99.406,13.077 99.442,13.692 99.442,14.332 L99.442,24.502 L97.642,24.502 L97.642,14.362 ZM88.687,48.412 C88.797,49.152 88.852,49.912 88.852,50.692 L88.852,60.502 L87.052,60.502 L87.052,49.762 C87.052,48.642 86.817,47.762 86.347,47.122 C85.877,46.482 85.002,46.162 83.722,46.162 C83.062,46.162 82.427,46.307 81.817,46.597 C81.207,46.887 80.672,47.332 80.212,47.932 C80.012,48.192 79.847,48.497 79.717,48.847 C79.587,49.197 79.482,49.562 79.402,49.942 C79.322,50.322 79.267,50.702 79.237,51.082 C79.207,51.462 79.192,51.812 79.192,52.132 L79.192,60.502 L77.392,60.502 L77.392,49.762 C77.392,48.642 77.157,47.762 76.687,47.122 C76.217,46.482 75.342,46.162 74.062,46.162 C73.402,46.162 72.767,46.307 72.157,46.597 C71.547,46.887 71.012,47.332 70.552,47.932 C70.352,48.192 70.187,48.497 70.057,48.847 C69.927,49.197 69.822,49.562 69.742,49.942 C69.662,50.322 69.607,50.702 69.577,51.082 C69.547,51.462 69.532,51.812 69.532,52.132 L69.532,60.502 L67.732,60.502 L67.732,44.962 L69.532,44.962 L69.532,47.302 L69.592,47.302 C70.052,46.402 70.712,45.717 71.572,45.247 C72.432,44.777 73.372,44.542 74.392,44.542 C75.112,44.542 75.722,44.622 76.222,44.782 C76.722,44.942 77.147,45.157 77.497,45.427 C77.847,45.697 78.137,46.012 78.367,46.372 C78.597,46.732 78.792,47.122 78.952,47.542 C79.472,46.522 80.167,45.767 81.037,45.277 C81.907,44.787 82.902,44.542 84.022,44.542 C85.082,44.542 85.927,44.717 86.557,45.067 C87.187,45.417 87.672,45.877 88.012,46.447 C88.352,47.017 88.577,47.672 88.687,48.412 ZM81.847,22.672 C81.217,23.392 80.456,23.947 79.567,24.337 C78.676,24.727 77.692,24.922 76.612,24.922 C75.611,24.902 74.677,24.722 73.807,24.382 C72.937,24.042 72.176,23.532 71.527,22.852 C70.876,22.172 70.361,21.322 69.982,20.302 C69.601,19.282 69.412,18.092 69.412,16.732 C69.412,15.592 69.562,14.527 69.862,13.537 C70.162,12.547 70.612,11.682 71.212,10.942 C71.812,10.202 72.562,9.617 73.462,9.187 C74.362,8.757 75.412,8.542 76.612,8.542 C77.831,8.542 78.892,8.757 79.792,9.187 C80.692,9.617 81.442,10.197 82.042,10.927 C82.642,11.657 83.086,12.522 83.377,13.522 C83.666,14.522 83.812,15.592 83.812,16.732 C83.812,17.972 83.641,19.092 83.302,20.092 C82.961,21.092 82.477,21.952 81.847,22.672 ZM81.592,14.152 C81.391,13.352 81.082,12.657 80.662,12.067 C80.242,11.477 79.702,11.012 79.042,10.672 C78.382,10.332 77.572,10.162 76.612,10.162 C75.671,10.162 74.866,10.347 74.197,10.717 C73.526,11.087 72.982,11.577 72.562,12.187 C72.142,12.797 71.831,13.497 71.632,14.287 C71.431,15.077 71.332,15.892 71.332,16.732 C71.332,17.692 71.446,18.577 71.677,19.387 C71.906,20.197 72.241,20.892 72.682,21.472 C73.121,22.052 73.672,22.502 74.332,22.822 C74.992,23.142 75.751,23.302 76.612,23.302 C77.551,23.302 78.356,23.117 79.027,22.747 C79.696,22.377 80.242,21.882 80.662,21.262 C81.082,20.642 81.391,19.942 81.592,19.162 C81.791,18.382 81.892,17.572 81.892,16.732 C81.892,15.812 81.791,14.952 81.592,14.152 ZM51.712,20.287 C52.292,21.197 53.072,21.932 54.052,22.492 C55.032,23.052 56.262,23.332 57.742,23.332 C58.662,23.332 59.502,23.182 60.262,22.882 C61.022,22.582 61.687,22.167 62.257,21.637 C62.827,21.107 63.307,20.482 63.697,19.762 C64.087,19.042 64.382,18.252 64.582,17.392 L66.712,17.392 C66.472,18.432 66.122,19.417 65.662,20.347 C65.202,21.277 64.597,22.092 63.847,22.792 C63.097,23.492 62.187,24.047 61.117,24.457 C60.047,24.867 58.792,25.072 57.352,25.072 C55.692,25.072 54.272,24.767 53.092,24.157 C51.912,23.547 50.947,22.722 50.197,21.682 C49.447,20.642 48.902,19.437 48.562,18.067 C48.222,16.697 48.052,15.242 48.052,13.702 C48.052,11.642 48.307,9.892 48.817,8.452 C49.327,7.012 50.032,5.837 50.932,4.927 C51.832,4.017 52.892,3.357 54.112,2.947 C55.332,2.537 56.662,2.332 58.102,2.332 C59.202,2.332 60.227,2.477 61.177,2.767 C62.127,3.057 62.967,3.492 63.697,4.072 C64.427,4.652 65.027,5.367 65.497,6.217 C65.967,7.067 66.292,8.052 66.472,9.172 L64.372,9.172 C63.952,7.332 63.172,6.022 62.032,5.242 C60.892,4.462 59.402,4.072 57.562,4.072 C56.262,4.072 55.142,4.332 54.202,4.852 C53.262,5.372 52.487,6.072 51.877,6.952 C51.267,7.832 50.817,8.847 50.527,9.997 C50.237,11.147 50.092,12.362 50.092,13.642 C50.092,14.842 50.217,16.022 50.467,17.182 C50.717,18.342 51.132,19.377 51.712,20.287 ZM54.322,46.747 C55.542,48.217 56.142,50.352 56.122,53.152 L44.062,53.152 C44.062,53.992 44.172,54.787 44.392,55.537 C44.612,56.287 44.937,56.937 45.367,57.487 C45.797,58.037 46.342,58.477 47.002,58.807 C47.662,59.137 48.422,59.302 49.282,59.302 C50.462,59.302 51.472,58.992 52.312,58.372 C53.152,57.752 53.712,56.872 53.992,55.732 L56.002,55.732 C55.782,56.472 55.492,57.157 55.132,57.787 C54.772,58.417 54.322,58.967 53.782,59.437 C53.242,59.907 52.602,60.272 51.862,60.532 C51.122,60.792 50.262,60.922 49.282,60.922 C48.042,60.922 46.972,60.712 46.072,60.292 C45.172,59.872 44.432,59.297 43.852,58.567 C43.272,57.837 42.842,56.977 42.562,55.987 C42.282,54.997 42.142,53.932 42.142,52.792 C42.142,51.652 42.307,50.582 42.637,49.582 C42.967,48.582 43.437,47.707 44.047,46.957 C44.657,46.207 45.402,45.617 46.282,45.187 C47.162,44.757 48.162,44.542 49.282,44.542 C51.422,44.542 53.102,45.277 54.322,46.747 ZM47.167,46.612 C46.557,46.912 46.037,47.312 45.607,47.812 C45.177,48.312 44.832,48.892 44.572,49.552 C44.312,50.212 44.142,50.912 44.062,51.652 L54.202,51.652 C54.202,50.892 54.097,50.177 53.887,49.507 C53.677,48.837 53.367,48.257 52.957,47.767 C52.547,47.277 52.032,46.887 51.412,46.597 C50.792,46.307 50.082,46.162 49.282,46.162 C48.482,46.162 47.777,46.312 47.167,46.612 ZM36.802,50.362 C36.802,48.962 36.492,47.912 35.872,47.212 C35.252,46.512 34.222,46.162 32.782,46.162 C32.222,46.162 31.712,46.247 31.252,46.417 C30.792,46.587 30.377,46.812 30.007,47.092 C29.637,47.372 29.322,47.692 29.062,48.052 C28.802,48.412 28.602,48.792 28.462,49.192 C28.282,49.692 28.172,50.172 28.132,50.632 C28.092,51.092 28.072,51.592 28.072,52.132 L28.072,60.502 L26.272,60.502 L26.272,44.962 L28.072,44.962 L28.072,47.122 C28.792,46.362 29.537,45.742 30.307,45.262 C31.077,44.782 32.002,44.542 33.082,44.542 C34.042,44.542 34.932,44.707 35.752,45.037 C36.572,45.367 37.262,45.942 37.822,46.762 C38.202,47.322 38.427,47.897 38.497,48.487 C38.567,49.077 38.602,49.692 38.602,50.332 L38.602,60.502 L36.802,60.502 L36.802,50.362 ZM19.942,57.727 C19.102,58.757 18.052,59.572 16.792,60.172 C15.532,60.772 14.072,61.072 12.412,61.072 C10.752,61.072 9.292,60.772 8.032,60.172 C6.772,59.572 5.722,58.757 4.882,57.727 C4.042,56.697 3.412,55.497 2.992,54.127 C2.572,52.757 2.362,51.292 2.362,49.732 C2.362,48.152 2.577,46.672 3.007,45.292 C3.437,43.912 4.072,42.707 4.912,41.677 C5.752,40.647 6.792,39.832 8.032,39.232 C9.272,38.632 10.702,38.332 12.322,38.332 C14.002,38.332 15.477,38.627 16.747,39.217 C18.017,39.807 19.077,40.617 19.927,41.647 C20.777,42.677 21.417,43.887 21.847,45.277 C22.277,46.667 22.492,48.152 22.492,49.732 C22.492,51.292 22.277,52.757 21.847,54.127 C21.417,55.497 20.782,56.697 19.942,57.727 ZM19.897,45.697 C19.527,44.507 18.992,43.492 18.292,42.652 C17.592,41.812 16.742,41.172 15.742,40.732 C14.742,40.292 13.622,40.072 12.382,40.072 C11.002,40.072 9.807,40.342 8.797,40.882 C7.787,41.422 6.957,42.137 6.307,43.027 C5.657,43.917 5.177,44.942 4.867,46.102 C4.557,47.262 4.402,48.472 4.402,49.732 C4.402,51.012 4.557,52.232 4.867,53.392 C5.177,54.552 5.657,55.572 6.307,56.452 C6.957,57.332 7.787,58.032 8.797,58.552 C9.807,59.072 11.022,59.332 12.442,59.332 C13.842,59.332 15.047,59.067 16.057,58.537 C17.067,58.007 17.897,57.302 18.547,56.422 C19.197,55.542 19.677,54.522 19.987,53.362 C20.297,52.202 20.452,50.992 20.452,49.732 C20.452,48.232 20.267,46.887 19.897,45.697 Z" class="cls-1"/>
</svg>
